SplineFontDB: 3.0
FontName: SortsMillWalbaum-Italic
FullName: Sorts Mill Walbaum Italic
FamilyName: SortsMillWalbaum
Weight: Regular
Copyright: Copyright (c) 2009 Barry Schwartz\n\nPermission is hereby granted, free of charge, to any person\nobtaining a copy of this software and associated documentation\nfiles (the "Software"), to deal in the Software without\nrestriction, including without limitation the rights to use,\ncopy, modify, merge, publish, distribute, sublicense, and/or sell\ncopies of the Software, and to permit persons to whom the\nSoftware is furnished to do so, subject to the following\nconditions:\n\nThe above copyright notice and this permission notice shall be\nincluded in all copies or substantial portions of the Software.\n\nTHE SOFTWARE IS PROVIDED "AS IS", WITHOUT WARRANTY OF ANY KIND,\nEXPRESS OR IMPLIED, INCLUDING BUT NOT LIMITED TO THE WARRANTIES\nOF MERCHANTABILITY, FITNESS FOR A PARTICULAR PURPOSE AND\nNONINFRINGEMENT. IN NO EVENT SHALL THE AUTHORS OR COPYRIGHT\nHOLDERS BE LIABLE FOR ANY CLAIM, DAMAGES OR OTHER LIABILITY,\nWHETHER IN AN ACTION OF CONTRACT, TORT OR OTHERWISE, ARISING\nFROM, OUT OF OR IN CONNECTION WITH THE SOFTWARE OR THE USE OR\nOTHER DEALINGS IN THE SOFTWARE.
UComments: "The starting point for a glyph of Sorts Mill Walbaum is a glyph of Sorts Mill Walbaum Display transformed as follows, in FontForge:+AAoACgAA-Element->Style->Change Weight+AAoA-Embolden by: 36 em units+AAoA-Emboldening hints: CJK+AAoA-Counters: Retain+AAoACgAA-Then raise the letters by 18 units.+AAoACgAA-CJK emboldening thickens all the lines by a certain amount, and so not only emboldens but also reduces contrast. This is what we want FontForge to do." 
Version: 001.000
ItalicAngle: -12
UnderlinePosition: -204
UnderlineWidth: 102
Ascent: 1472
Descent: 576
LayerCount: 3
Layer: 0 0 "Back"  1
Layer: 1 0 "Fore"  0
Layer: 2 0 "backup"  1
NeedsXUIDChange: 1
XUID: [1021 658 797806517 12611104]
FSType: 0
OS2Version: 0
OS2_WeightWidthSlopeOnly: 0

StartChar: y
Encoding: 121 121 0
Width: 1336
VWidth: 18
Flags: HW
LayerCount: 3
Fore
SplineSet
65 434 m 1
 24 438 16 464 18 477 c 0
 18 480 105 916 359 916 c 0
 611 916 622 537 652 307 c 1
 785 504 856 636 1015 834 c 0
 1058 888 1095 935 1169 935 c 0
 1262 935 1292 867 1292 814 c 0
 1292 740 1232 685 1180 685 c 0
 1128 685 1104 721 1066 754 c 1
 645 211 595 -19 565 -86 c 0
 380 -500 237 -629 14 -629 c 0
 -172 -629 -199 -530 -199 -464 c 0
 -199 -403 -149 -350 -90 -350 c 0
 -27 -350 14 -428 14 -482 c 0
 14 -503 12 -522 4 -542 c 1
 17 -547 32 -550 49 -550 c 0
 251 -550 463 -182 463 31 c 0
 463 227 386 762 270 762 c 0
 181 762 105 470 105 470 c 0
 98 452 89 434 65 434 c 1
EndSplineSet
EndChar

StartChar: Q
Encoding: 81 81 1
Width: 1593
VWidth: 0
Flags: HW
HStem: -634 54<814.334 1108> -48 58<469.606 776.47> 1500 50<813.598 1091.41>
VStem: 82 214<313.466 678.395> 1300 205<810.332 1218.68>
LayerCount: 3
Fore
SplineSet
296 358 m 0
 296 96 412 10 588 10 c 0
 774 10 935 80 1037 216 c 0
 1185 412 1300 978 1300 1074 c 0
 1300 1466 1077 1500 953 1500 c 0
 815 1500 696 1438 599 1332 c 0
 490 1213 296 665 296 358 c 0
82 569 m 0
 82 941 425 1550 931 1550 c 0
 1389 1550 1505 1240 1505 952 c 0
 1505 809 1462 588 1397 466 c 0
 1214 125 950 -48 652 -48 c 0
 591 -48 534 -44 468 -38 c 1
 545 -110 596 -142 664 -222 c 0
 765 -341 717 -450 812 -558 c 0
 830 -578 854 -580 883 -580 c 2
 1108 -580 l 1
 1108 -634 l 1
 875 -634 l 2
 418 -634 519 -150 415 -36 c 1
 391 -8 368 12 346 29 c 0
 345 30 82 169 82 569 c 0
EndSplineSet
EndChar

StartChar: O
Encoding: 79 79 2
Width: 1545
VWidth: 0
Flags: HW
HStem: -32 46<574.291 864.477> 1493 35<885.881 1134.72>
VStem: 161 225<295.146 669.917> 1375 195<852.754 1209.76>
LayerCount: 3
Fore
SplineSet
386 352 m 0
 386 90 547 14 709 14 c 0
 895 14 983 80 1085 216 c 0
 1233 412 1375 951 1375 1138 c 0
 1375 1400 1183 1493 1020 1493 c 0
 826 1493 666 1445 487 883 c 0
 429 701 386 504 386 352 c 0
161 540 m 0
 161 893 498 1528 1008 1528 c 0
 1416 1528 1570 1249 1570 973 c 0
 1570 337 1021 -32 728 -32 c 0
 622 -32 161 26 161 540 c 0
EndSplineSet
EndChar

StartChar: A
Encoding: 65 65 3
Width: 1694
VWidth: 0
Flags: HW
HStem: 0 54<72 216 296 576 824 1058 1268 1500> 636 54<864 1226>
LayerCount: 3
Fore
SplineSet
864 690 m 1
 1242 690 l 1
 1423 1306 l 1
 864 690 l 1
72 0 m 1
 72 54 l 1
 216 54 l 1
 1417 1375 1535 1502 1584 1502 c 0
 1591 1502 1606 1498 1606 1482 c 0
 1606 1399 1555 1192 1268 54 c 1
 1500 54 l 1
 1500 0 l 1
 824 0 l 1
 824 54 l 1
 1058 54 l 1
 1226 636 l 1
 821 636 l 1
 296 54 l 1
 576 54 l 1
 576 0 l 1
 72 0 l 1
EndSplineSet
EndChar

StartChar: x
Encoding: 120 120 4
Width: 1308
VWidth: 18
Flags: HW
LayerCount: 3
Fore
SplineSet
1170 185 m 0
 1170 139 921 -43 723 -43 c 0
 564 -43 518 57 506 115 c 1
 452 66 328 -31 211 -31 c 0
 123 -31 44 29 44 112 c 0
 44 186 93 241 166 241 c 0
 221 241 257 184 257 137 c 0
 257 107 250 82 243 63 c 1
 301 75 397 121 500 240 c 0
 541 288 685 581 685 740 c 0
 685 803 661 821 625 821 c 0
 465 821 355 668 337 657 c 0
 331 653 324 652 318 652 c 0
 298 652 280 668 280 687 c 0
 280 732 447 914 665 914 c 0
 807 914 864 810 885 756 c 1
 1007 873 1127 913 1194 913 c 0
 1266 913 1326 876 1326 767 c 0
 1326 696 1308 642 1234 642 c 0
 1170 642 1144 701 1129 808 c 1
 1039 782 956 714 922 657 c 0
 814 479 715 169 715 124 c 0
 715 76 768 65 780 65 c 0
 934 65 1093 228 1123 228 c 0
 1137 228 1170 212 1170 185 c 0
EndSplineSet
EndChar

StartChar: z
Encoding: 122 122 5
Width: 1117
VWidth: 18
Flags: HW
LayerCount: 3
Fore
SplineSet
209 524 m 1
 181 527 158 539 158 564 c 0
 158 567 158 570 159 573 c 0
 161 586 160 576 160 576 c 2
 163 589 174 615 183 641 c 2
 263 865 l 1
 276 898 287 908 319 908 c 0
 461 908 602 908 741 908 c 0
 810 908 879 908 947 908 c 0
 981 908 984 898 998 864 c 0
 1000 860 1001 856 1001 852 c 0
 1001 829 974 807 951 784 c 1
 350 211 l 1
 374 216 407 222 438 222 c 0
 614 222 693 78 794 78 c 1
 862 80 897 99 914 113 c 1
 894 131 863 165 863 221 c 0
 863 273 910 320 965 320 c 0
 1000 320 1074 290 1074 205 c 0
 1074 90 941 -31 679 -31 c 0
 468 -31 389 64 271 64 c 1
 162 61 140 -31 96 -31 c 0
 87 -31 48 -17 48 14 c 0
 48 27 54 43 72 62 c 1
 745 707 l 1
 312 707 l 2
 301 707 306 706 304 706 c 1
 303 704 304 708 297 689 c 2
 264 602 l 2
 248 557 240 524 209 524 c 1
EndSplineSet
EndChar

StartChar: w
Encoding: 119 119 6
Width: 1604
VWidth: 18
Flags: HW
LayerCount: 3
Fore
SplineSet
1023 905 m 2
 1047 905 1084 906 1084 864 c 0
 1084 854 1083 838 1074 815 c 2
 996 599 l 1
 868 239 848 178 848 125 c 0
 848 87 863 64 922 64 c 0
 1170 64 1477 357 1477 598 c 0
 1477 680 1313 696 1313 797 c 0
 1313 866 1368 902 1429 902 c 0
 1505 902 1592 844 1592 730 c 0
 1592 350 1255 -23 872 -23 c 0
 689 -23 653 72 653 143 c 0
 653 148 653 152 653 156 c 1
 583 87 438 -32 269 -32 c 0
 124 -32 76 51 76 155 c 0
 76 243 108 340 125 403 c 2
 212 741 l 2
 218 768 225 793 231 818 c 1
 71 818 l 1
 42 822 29 842 29 862 c 0
 29 885 46 908 73 908 c 2
 412 908 l 2
 424 908 456 909 456 875 c 0
 456 821 256 240 256 125 c 0
 256 87 284 62 331 62 c 0
 401 62 515 115 634 270 c 0
 677 326 714 406 750 505 c 2
 867 827 l 2
 884 875 889 905 953 905 c 2
 1023 905 l 2
EndSplineSet
EndChar

StartChar: v
Encoding: 118 118 7
Width: 1231
VWidth: 18
Flags: HW
LayerCount: 3
Fore
SplineSet
74 623 m 0
 74 672 267 920 505 920 c 0
 574 920 651 897 651 817 c 1
 649 751 442 180 440 125 c 1
 440 125 l 2
 440 87 454 64 515 64 c 0
 771 64 1057 345 1057 557 c 0
 1057 691 904 672 904 798 c 0
 904 870 968 905 1016 905 c 0
 1106 905 1190 808 1190 698 c 0
 1190 570 1097 167 706 20 c 0
 620 -12 531 -30 451 -30 c 0
 323 -30 229 20 229 142 c 0
 229 223 407 700 407 763 c 0
 407 783 400 798 395 798 c 0
 302 798 195 684 144 615 c 0
 134 601 121 589 106 589 c 0
 89 589 74 605 74 623 c 0
EndSplineSet
EndChar

StartChar: u
Encoding: 117 117 8
Width: 1312
VWidth: 18
Flags: HW
LayerCount: 3
Fore
SplineSet
1220 248 m 0
 1220 201 1038 -30 824 -30 c 0
 740 -30 689 8 689 65 c 0
 689 102 705 148 718 191 c 1
 584 56 403 -28 269 -28 c 0
 181 -28 96 7 96 145 c 0
 96 221 121 312 145 403 c 2
 235 741 l 2
 241 768 248 793 254 818 c 1
 91 818 l 1
 81 820 52 819 52 862 c 0
 52 897 75 908 91 908 c 2
 415 908 l 2
 425 908 469 909 469 871 c 0
 469 817 276 199 276 125 c 0
 276 96 293 76 352 76 c 0
 510 76 670 246 722 333 c 1
 823 509 916 861 936 885 c 0
 949 901 968 908 999 908 c 2
 1068 908 l 2
 1096 908 1128 908 1127 864 c 1
 1127 864 1127 864 1127 863 c 0
 1120 787 911 244 911 112 c 0
 911 89 915 83 923 83 c 0
 943 83 1024 117 1115 226 c 0
 1152 271 1155 288 1178 288 c 1
 1211 281 1220 262 1220 248 c 0
1127 864 m 1
 1127 863 1127 862 1127 862 c 2
 1127 864 l 1
EndSplineSet
EndChar

StartChar: t
Encoding: 116 116 9
Width: 751
VWidth: 18
Flags: HW
LayerCount: 3
Fore
SplineSet
610 275 m 1
 616 274 648 270 648 234 c 0
 648 223 645 214 637 207 c 0
 538 113 396 -18 228 -18 c 0
 116 -18 76 33 76 102 c 0
 76 159 97 227 123 312 c 2
 282 818 l 1
 133 818 l 2
 117 818 91 816 91 852 c 0
 91 912 121 907 157 908 c 1
 311 908 l 1
 397 1165 l 1
 415 1210 442 1210 477 1210 c 2
 480 1210 l 1
 544 1210 l 2
 557 1210 599 1212 599 1174 c 0
 599 1170 598 1163 595 1153 c 2
 512 908 l 1
 664 908 l 2
 677 908 712 910 712 874 c 0
 712 819 686 818 661 818 c 2
 483 818 l 1
 409 583 l 1
 336 346 275 175 275 106 c 0
 275 84 282 72 296 72 c 0
 342 72 450 140 586 265 c 0
 588 267 595 275 610 275 c 1
EndSplineSet
EndChar

StartChar: a
Encoding: 97 97 10
Width: 1258
VWidth: 18
Flags: HW
LayerCount: 3
Fore
SplineSet
1214 272 m 0
 1214 240 1058 -18 805 -18 c 0
 750 -18 691 6 691 101 c 0
 691 118 693 133 695 149 c 1
 627 82 487 -30 314 -30 c 0
 119 -30 61 129 61 277 c 0
 61 614 398 926 648 926 c 0
 811 926 865 812 883 733 c 1
 953 903 942 926 1016 926 c 2
 1077 926 l 6
 1095 926 1132 925 1132 889 c 0
 1132 826 898 295 898 141 c 0
 898 114 904 100 924 100 c 0
 1028 100 1142 283 1154 295 c 0
 1162 303 1170 306 1178 306 c 0
 1197 306 1214 290 1214 272 c 0
256 144 m 0
 256 65 289 38 340 38 c 0
 435 38 590 133 683 252 c 0
 784 382 813 613 813 659 c 0
 813 742 764 850 675 850 c 0
 490 850 256 393 256 144 c 0
EndSplineSet
EndChar

StartChar: b
Encoding: 98 98 11
Width: 1185
VWidth: 18
Flags: HW
LayerCount: 3
Fore
SplineSet
674.229766804 1521.00308642 m 2
 688.104938272 1521.00308642 722 1520.11111111 722 1488 c 0
 722 1477 720 1471 708 1435 c 1
 531 852 l 1
 599 896 734 970 869 970 c 0
 1040 970 1145 821 1145 662 c 0
 1145 280 775 -48 457 -48 c 0
 316 -48 122 9 122 143 c 0
 122 263 216 454 510 1431 c 1
 323 1431 l 2
 295 1431 285 1447 285 1465 c 2
 285 1470 l 2
 285 1519 318 1521 332 1521 c 2
 674.229766804 1521.00308642 l 2
322 176 m 0
 322 58 367 35 439 35 c 0
 692 35 827 364 861 443 c 0
 926 597 948 689 948 751 c 0
 948 851 886 876 825 876 c 0
 726 876 588 808 495 693 c 0
 441 626 322 248 322 176 c 0
EndSplineSet
EndChar

StartChar: c
Encoding: 99 99 12
Width: 984
VWidth: 18
Flags: HW
LayerCount: 3
Fore
SplineSet
811 181 m 0
 811 126 593 -47 412 -47 c 0
 147 -47 40 118 40 318 c 0
 40 601 261 955 623 955 c 0
 791 955 921 862 921 724 c 0
 921 672 903 598 835 598 c 0
 767 598 750 660 750 697 c 0
 750 713 754 763 754 779 c 0
 754 832.26549476 711.591811622 868 640 868 c 0
 522 867 462 808 401 723 c 0
 296 578 251 360 251 260 c 0
 251 90 313 42 415 42 c 1
 641 45 726 225 770 225 c 1
 801 221 811 198 811 181 c 0
EndSplineSet
EndChar

StartChar: d
Encoding: 100 100 13
Width: 1253
VWidth: -2
Flags: HW
LayerCount: 3
Fore
SplineSet
626 884 m 0
 460 884 349 632 304 519 c 1
 245 366 228 285 228 226 c 0
 228 146 251 67 350 67 c 0
 482 67 672 205 714 361 c 0
 717 373 809 674 809 706 c 0
 809 787 726 884 626 884 c 0
1212 263 m 0
 1212 228 1023 -39 799 -39 c 0
 702 -39 663 27 663 95 c 0
 663 109 663 124 665 137 c 1
 560 34 437 -22 336 -22 c 0
 161 -22 41 108 41 284 c 0
 41 600 281 978 601 978 c 0
 719 978 804 910 849 829 c 1
 1026 1431 l 1
 812 1431 l 2
 796 1431 766 1434 766 1469 c 2
 766 1474 l 2
 766 1502 783 1521 809 1521 c 2
 1173 1521 l 2
 1189 1521 1224 1523 1224 1481 c 1
 1218 1397 861 260 861 135 c 0
 861 102 868 71 898 71 c 0
 992 71 1132 281 1145 291 c 0
 1153 297 1163 301 1174 301 c 1
 1200 296 1212 279 1212 263 c 0
1224 1481 m 1
 1224 1479 1224 1478 1224 1478 c 2
 1224 1478 1224 1480 1224 1481 c 1
EndSplineSet
EndChar

StartChar: e
Encoding: 101 101 14
Width: 926
VWidth: 18
Flags: HW
LayerCount: 3
Fore
SplineSet
834 248 m 0
 834 194 590 -33 325 -33 c 0
 175 -33 58 20 58 237 c 0
 58 586 380 927 710 927 c 0
 826 927 884 858 884 778 c 0
 884 546 465 455 295 394 c 1
 284 370 266 307 266 228 c 0
 266 110 334 73 400 73 c 0
 577 73 766 276 767 277 c 0
 776 284 784 287 794 287 c 0
 819 287 834 267 834 248 c 0
666 828 m 0
 501 828 371 595 327 496 c 1
 470 538 734 651 734 762 c 0
 734 785 720 828 666 828 c 0
EndSplineSet
EndChar

StartChar: f
Encoding: 102 102 15
Width: 952
VWidth: 18
Flags: HW
LayerCount: 3
Fore
SplineSet
134 818 m 2
 118 818 89 816 89 858 c 0
 89 886 98 908 134 908 c 2
 378 908 l 1
 400 1012 531 1592 920 1592 c 0
 1079 1592 1132 1475 1132 1416 c 0
 1132 1357 1087 1310 1044 1310 c 0
 946 1310 948 1445 947 1508 c 1
 652 1494 644 1140 600 908 c 1
 835 908 l 1
 852 907 880 908 880 869 c 0
 880 858 879 818 835 818 c 2
 584 818 l 1
 431 157 365 -63 216 -289 c 0
 203 -309 51 -577 -195 -577 c 0
 -271 -577 -450 -542 -450 -402 c 0
 -450 -313 -396 -264 -340 -264 c 0
 -287 -264 -236 -309 -236 -385 c 1
 -238 -438 -250 -468 -264 -486 c 1
 -247 -493 -221 -498 -190 -498 c 0
 137 -498 261 257 359 818 c 1
 134 818 l 2
EndSplineSet
EndChar

StartChar: g
Encoding: 103 103 16
Width: 1334
VWidth: 18
Flags: HW
LayerCount: 3
Fore
SplineSet
718 852 m 0
 567 852 459 675 459 536 c 0
 459 436 516 384 574 384 c 0
 714 384 820 576 820 718 c 0
 820 779 800 852 718 852 c 0
886 -182 m 0
 886 -146 875 -29 719 -29 c 0
 581 -29 361 -55 258 -70 c 0
 145 -87 82 -176 82 -269 c 0
 82 -431 236 -509 418 -509 c 0
 645 -509 886 -376 886 -182 c 0
334 371 m 0
 216 371 174 312 174 272 c 0
 174 216 225 155 296 155 c 0
 438 155 515 197 733 197 c 0
 929 197 1022 82 1022 -88 c 0
 1022 -391 737 -595 370 -595 c 0
 63 -595 -56 -448 -56 -299 c 0
 -56 -128 78 -60 169 -30 c 1
 107 7 55 80 55 148 c 0
 55 212 75 429 286 449 c 1
 274 471 260 506 260 549 c 0
 260 792 520 941 732 941 c 0
 828 941 937 895 982 811 c 1
 1018 850 1097 927 1174 927 c 0
 1248 927 1294 875 1294 807 c 0
 1294 755 1261 713 1217 713 c 1
 1133 719 1145 816 1117 816 c 0
 1116 816 1116 816 1115 816 c 0
 1087 810 1022 749 1020 703 c 0
 1008 479 814 297 568 297 c 0
 436 297 381 371 334 371 c 0
EndSplineSet
EndChar

StartChar: h
Encoding: 104 104 17
Width: 1361
VWidth: 18
Flags: HW
LayerCount: 3
Fore
SplineSet
1259 198 m 0
 1259 159 1117 -40 860 -40 c 0
 782 -40 698 -15 698 62 c 0
 698 145 921 655 921 744 c 0
 921 805 894 822 853 822 c 0
 614 822 425 531 395 430 c 0
 355 297 289 102 271 48 c 0
 260 17 237 0 214 0 c 2
 129 0 l 2
 121 0 78 0 78 39 c 0
 78 96 186 365 511 1431 c 1
 299 1431 l 2
 271 1431 261 1447 261 1465 c 2
 261 1470 l 2
 261 1519 294 1521 308 1521 c 2
 670 1521 l 2
 682 1521 720 1522 720 1488 c 0
 720 1477 717 1466 706 1435 c 2
 476 711 l 1
 556 792 712 919 892 919 c 0
 1032 919 1134 837 1134 715 c 0
 1134 568 929 157 929 84 c 0
 929 71 935 63 960 63 c 0
 1051 63 1161 192 1184 223 c 0
 1196 239 1203 240 1216 240 c 0
 1234 240 1259 221 1259 198 c 0
EndSplineSet
EndChar

StartChar: i
Encoding: 105 105 18
Width: 639
VWidth: 18
Flags: HW
LayerCount: 3
Fore
SplineSet
589 231 m 0
 589 182 407 -36 199 -36 c 0
 121 -36 77 1 77 82 c 0
 77 127 109 217 290 818 c 1
 121 818 l 1
 92 822 79 842 79 862 c 0
 79 885 96 908 123 908 c 2
 454 908 l 2
 467 908 499 910 499 870 c 1
 499 869 l 2
 499 868 l 0
 491 794 280 208 280 96 c 0
 280 79 285 76 299 76 c 0
 328 76 409 107 511 243 c 0
 529 267 541 269 549 269 c 1
 580 263 589 245 589 231 c 0
493 1467 m 0
 558 1467 611 1414 611 1350 c 0
 611 1286 558 1233 493 1233 c 0
 428 1233 375 1286 375 1350 c 0
 375 1414 428 1467 493 1467 c 0
499 870 m 1
 499 869 499 868 499 868 c 0
 499 868 499 869 499 870 c 1
EndSplineSet
EndChar

StartChar: j
Encoding: 106 106 19
Width: 675
VWidth: 18
Flags: HW
LayerCount: 3
Fore
SplineSet
599 1467 m 0
 664 1467 717 1414 717 1350 c 0
 717 1286 664 1233 599 1233 c 0
 534 1233 481 1286 481 1350 c 0
 481 1414 534 1467 599 1467 c 0
208 818 m 1
 176 822 163 842 163 862 c 0
 163 885 181 908 210 908 c 2
 560 908 l 2
 563 908 604 910 604 879 c 0
 604 859 380 145 269 -197 c 0
 186 -453 186 -509 -24 -576 c 1
 -99 -602 -173 -612 -210 -612 c 0
 -252 -612 -266 -591 -266 -570 c 0
 -266 -468 -71 -596 7 -372 c 1
 87 -152 54 -233 138 31 c 2
 390 818 l 1
 208 818 l 1
EndSplineSet
EndChar

StartChar: k
Encoding: 107 107 20
Width: 1199
VWidth: 18
Flags: HW
LayerCount: 3
Fore
SplineSet
1144 170 m 0
 1144 138 992 -24 776 -24 c 0
 678 -24 631 22 631 106 c 0
 631 202 705 352 705 446 c 0
 705 494 685 516 635 516 c 0
 566 516 500 479 462 450 c 0
 368 380 361 316 271 48 c 0
 261 17 237 0 214 0 c 2
 139 0 l 1
 115 1 88 8 88 38 c 0
 88 78 165 301 263 614 c 1
 513 1431 l 1
 299 1431 l 2
 271 1431 261 1447 261 1465 c 2
 261 1470 l 2
 261 1519 294 1521 308 1521 c 2
 674 1521 l 2
 686 1521 724 1522 724 1488 c 0
 724 1477 716 1456 710 1435 c 2
 445 558 l 1
 519 632 739 929 988 929 c 0
 1093 929 1137 869 1137 808 c 0
 1137 749 1095 688 1030 688 c 0
 944 688 904 776 890 816 c 1
 784 779 669 700 583 597 c 1
 627 607 679 615 729 615 c 0
 879 615 904 538 904 486 c 0
 904 324 824 167 824 102 c 0
 824 82 832 71 851 71 c 0
 941 71 1085 207 1085 207 c 0
 1089 209 1095 211 1101 211 c 0
 1122 211 1144 191 1144 170 c 0
EndSplineSet
EndChar

StartChar: l
Encoding: 108 108 21
Width: 764
VWidth: 18
Flags: HW
LayerCount: 3
Fore
SplineSet
677 254 m 0
 677 231 552 -19 248 -19 c 0
 147 -19 113 31 113 96 c 0
 113 129 123 164 134 200 c 2
 501 1431 l 1
 299 1431 l 2
 271 1431 261 1447 261 1465 c 2
 261 1470 l 2
 261 1519 294 1521 308 1521 c 2
 652 1521 l 2
 656 1521 699 1522 699 1491 c 0
 699 1472 666 1370 385 409 c 0
 350 289 311 178 311 129 c 0
 311 102 320 90 363 90 c 0
 457 90 571 229 599 270 c 0
 613 290 624 293 638 293 c 1
 667 288 677 268 677 254 c 0
EndSplineSet
EndChar

StartChar: m
Encoding: 109 109 22
Width: 1883
VWidth: 18
Flags: HW
LayerCount: 3
Fore
SplineSet
652 46 m 0
 652 102 907 673 907 782 c 0
 907 814 896 831 850 831 c 0
 678 831 481 611 419 482 c 0
 331 299 249 42 234 22 c 0
 229 15 216 0 185 0 c 2
 107 0 l 2
 93 1 53 0 53 42 c 0
 53 82 86 157 317 818 c 1
 149 818 l 1
 120 822 107 842 107 862 c 0
 107 885 124 908 151 908 c 2
 477 908 l 2
 487 908 523 909 523 873 c 0
 523 860 496 784 457 679 c 1
 545 776 705 920 878 920 c 0
 1056 920 1084 824 1084 760 c 0
 1084 738 1081 715 1077 695 c 1
 1161 775 1339 918 1545 918 c 0
 1669 918 1700 844 1700 765 c 0
 1700 609 1486 210 1486 110 c 0
 1486 92 1491 85 1514 85 c 0
 1562 85 1659 140 1735 271 c 0
 1748 293 1764 302 1778 302 c 0
 1799 302 1817 284 1817 266 c 0
 1817 243 1714 -10 1428 -10 c 0
 1353 -10 1274 16 1274 99 c 0
 1274 201 1507 685 1507 760 c 0
 1507 804 1493 820 1455 820 c 0
 1380 820 1144 725 1017 456 c 0
 854 112 880 0 786 0 c 2
 702 0 l 2
 658 0 652 29 652 46 c 0
EndSplineSet
EndChar

StartChar: n
Encoding: 110 110 23
Width: 1295
VWidth: 18
Flags: HW
LayerCount: 3
Fore
SplineSet
73 40 m 0
 73 74 169 384 308 818 c 1
 149 818 l 1
 120 822 107 842 107 862 c 0
 107 885 124 908 151 908 c 2
 465 908 l 2
 475 908 513 910 513 873 c 0
 513 860 491 795 470 736 c 1
 549 816 698 933 895 933 c 0
 1069 933 1109 848 1109 763 c 0
 1109 649 918 183 918 114 c 0
 918 99 926 85 955 85 c 0
 1044 85 1142 229 1160 250 c 0
 1165 255 1172 263 1185 263 c 1
 1209 259 1220 243 1220 229 c 0
 1220 204 1089 -20 873 -20 c 0
 800 -20 705 6 705 110 c 0
 705 205 898 677 898 767 c 0
 898 809 871 845 821 845 c 0
 727 845 592 749 504 647 c 0
 372 493 279 54 260 25 c 0
 244 1 219 0 209 0 c 2
 128 0 l 2
 120 0 73 -2 73 40 c 0
EndSplineSet
EndChar

StartChar: o
Encoding: 111 111 24
Width: 1106
VWidth: 18
Flags: HW
LayerCount: 3
Fore
SplineSet
653 884 m 0
 385 884 263 368 263 234 c 0
 263 154 293 50 419 50 c 0
 666 50 840 382 840 712 c 0
 840 848 773 884 653 884 c 0
39 343 m 0
 39 522 190 962 698 962 c 0
 915 962 1057 817 1057 606 c 0
 1057 251 743 -34 442 -34 c 0
 216 -34 39 117 39 343 c 0
EndSplineSet
EndChar

StartChar: p
Encoding: 112 112 25
Width: 794
VWidth: 18
Flags: HW
LayerCount: 3
Fore
SplineSet
464 794 m 0
 542 794 600 725 600 649 c 0
 600 568 537 499 455 499 c 0
 377 499 310 561 310 640 c 0
 310 732 382 794 464 794 c 0
EndSplineSet
EndChar

StartChar: q
Encoding: 113 113 26
Width: 794
VWidth: 18
Flags: HW
LayerCount: 3
Fore
SplineSet
464 794 m 0
 542 794 600 725 600 649 c 0
 600 568 537 499 455 499 c 0
 377 499 310 561 310 640 c 0
 310 732 382 794 464 794 c 0
EndSplineSet
EndChar

StartChar: r
Encoding: 114 114 27
Width: 1018
VWidth: 18
Flags: HW
LayerCount: 3
Fore
SplineSet
83 860 m 0
 83 908 123 908 139 908 c 2
 518 908 l 1
 555 907 570 903 570 884 c 0
 570 861 547 817 514 730 c 1
 609 806 771 911 877 911 c 0
 946 911 989 863 989 788 c 0
 989 690 932 632 868 632 c 0
 818 632 773 670 773 740 c 0
 773 754 775 768 777 781 c 1
 694 741 492 632 391 402 c 1
 228 21 277 0 170 0 c 2
 127 0 l 2
 83 0 53 0 53 43 c 0
 53 54 54 55 67 97 c 1
 324 818 l 1
 127 818 l 1
 94 821 83 841 83 860 c 0
EndSplineSet
EndChar

StartChar: s
Encoding: 115 115 28
Width: 853
VWidth: 18
Flags: HW
LayerCount: 3
Fore
SplineSet
133 326 m 0
 177 326 244 301 244 157 c 0
 244 107 251 60 350 60 c 0
 435 60 543 110 543 185 c 0
 543 339 211 426 211 638 c 0
 211 727 293 935 538 935 c 0
 676 935 799 858 799 743 c 0
 799 693 771 653 728 653 c 0
 587 653 656 842 508 842 c 0
 435 842 373 808 373 766 c 0
 373 672 725 508 725 289 c 0
 725 138 582 -38 338 -38 c 0
 140 -38 22 92 22 210 c 0
 22 279 76 326 133 326 c 0
EndSplineSet
EndChar

